<?xml version="1.0" encoding="UTF-8" standalone="no"?>
<!-- Created with Inkscape (http://www.inkscape.org/) -->

<svg
   xmlns:dc="http://purl.org/dc/elements/1.1/"
   xmlns:cc="http://creativecommons.org/ns#"
   xmlns:rdf="http://www.w3.org/1999/02/22-rdf-syntax-ns#"
   xmlns:svg="http://www.w3.org/2000/svg"
   xmlns="http://www.w3.org/2000/svg"
   xmlns:sodipodi="http://sodipodi.sourceforge.net/DTD/sodipodi-0.dtd"
   xmlns:inkscape="http://www.inkscape.org/namespaces/inkscape"
   width="50"
   height="50"
   viewBox="0 0 13.229166 13.229167"
   version="1.1"
   id="svg6425"
   inkscape:version="0.92.0 unknown"
   sodipodi:docname="player_indicator-hdpi.svg">
  <defs
     id="defs6419">
    <filter
       style="color-interpolation-filters:sRGB"
       inkscape:label="Lighting"
       id="filter5993">
      <feComponentTransfer
         result="component"
         id="feComponentTransfer5991">
        <feFuncR
           type="gamma"
           amplitude="1.39037"
           exponent="1"
           offset="0"
           id="feFuncR5985" />
        <feFuncG
           type="gamma"
           amplitude="1.39037"
           exponent="1"
           offset="0"
           id="feFuncG5987" />
        <feFuncB
           type="gamma"
           amplitude="1.39037"
           exponent="1"
           offset="0"
           id="feFuncB5989" />
      </feComponentTransfer>
    </filter>
    <filter
       style="color-interpolation-filters:sRGB"
       inkscape:label="Lighting"
       id="filter5983">
      <feComponentTransfer
         result="component"
         id="feComponentTransfer5981">
        <feFuncR
           type="gamma"
           amplitude="1.39037"
           exponent="1"
           offset="0"
           id="feFuncR5975" />
        <feFuncG
           type="gamma"
           amplitude="1.39037"
           exponent="1"
           offset="0"
           id="feFuncG5977" />
        <feFuncB
           type="gamma"
           amplitude="1.39037"
           exponent="1"
           offset="0"
           id="feFuncB5979" />
      </feComponentTransfer>
    </filter>
    <filter
       style="color-interpolation-filters:sRGB"
       inkscape:label="Lighting"
       id="filter5973">
      <feComponentTransfer
         result="component"
         id="feComponentTransfer5971">
        <feFuncR
           type="gamma"
           amplitude="1.39037"
           exponent="1"
           offset="0"
           id="feFuncR5965" />
        <feFuncG
           type="gamma"
           amplitude="1.39037"
           exponent="1"
           offset="0"
           id="feFuncG5967" />
        <feFuncB
           type="gamma"
           amplitude="1.39037"
           exponent="1"
           offset="0"
           id="feFuncB5969" />
      </feComponentTransfer>
    </filter>
    <filter
       style="color-interpolation-filters:sRGB"
       inkscape:label="Lighting"
       id="filter5963">
      <feComponentTransfer
         result="component"
         id="feComponentTransfer5961">
        <feFuncR
           type="gamma"
           amplitude="1.39037"
           exponent="1"
           offset="0"
           id="feFuncR5955" />
        <feFuncG
           type="gamma"
           amplitude="1.39037"
           exponent="1"
           offset="0"
           id="feFuncG5957" />
        <feFuncB
           type="gamma"
           amplitude="1.39037"
           exponent="1"
           offset="0"
           id="feFuncB5959" />
      </feComponentTransfer>
    </filter>
    <filter
       style="color-interpolation-filters:sRGB"
       inkscape:label="Lighting"
       id="filter5953">
      <feComponentTransfer
         result="component"
         id="feComponentTransfer5951">
        <feFuncR
           type="gamma"
           amplitude="1.39037"
           exponent="1"
           offset="0"
           id="feFuncR5945" />
        <feFuncG
           type="gamma"
           amplitude="1.39037"
           exponent="1"
           offset="0"
           id="feFuncG5947" />
        <feFuncB
           type="gamma"
           amplitude="1.39037"
           exponent="1"
           offset="0"
           id="feFuncB5949" />
      </feComponentTransfer>
    </filter>
    <filter
       style="color-interpolation-filters:sRGB"
       inkscape:label="Lighting"
       id="filter5943">
      <feComponentTransfer
         result="component"
         id="feComponentTransfer5941">
        <feFuncR
           type="gamma"
           amplitude="1.39037"
           exponent="1"
           offset="0"
           id="feFuncR5935" />
        <feFuncG
           type="gamma"
           amplitude="1.39037"
           exponent="1"
           offset="0"
           id="feFuncG5937" />
        <feFuncB
           type="gamma"
           amplitude="1.39037"
           exponent="1"
           offset="0"
           id="feFuncB5939" />
      </feComponentTransfer>
    </filter>
    <filter
       style="color-interpolation-filters:sRGB"
       inkscape:label="Lighting"
       id="filter5933">
      <feComponentTransfer
         result="component"
         id="feComponentTransfer5931">
        <feFuncR
           type="gamma"
           amplitude="1.39037"
           exponent="1"
           offset="0"
           id="feFuncR5925" />
        <feFuncG
           type="gamma"
           amplitude="1.39037"
           exponent="1"
           offset="0"
           id="feFuncG5927" />
        <feFuncB
           type="gamma"
           amplitude="1.39037"
           exponent="1"
           offset="0"
           id="feFuncB5929" />
      </feComponentTransfer>
    </filter>
    <filter
       style="color-interpolation-filters:sRGB"
       inkscape:label="Lighting"
       id="filter5923">
      <feComponentTransfer
         result="component"
         id="feComponentTransfer5921">
        <feFuncR
           type="gamma"
           amplitude="1.39037"
           exponent="1"
           offset="0"
           id="feFuncR5915" />
        <feFuncG
           type="gamma"
           amplitude="1.39037"
           exponent="1"
           offset="0"
           id="feFuncG5917" />
        <feFuncB
           type="gamma"
           amplitude="1.39037"
           exponent="1"
           offset="0"
           id="feFuncB5919" />
      </feComponentTransfer>
    </filter>
    <filter
       style="color-interpolation-filters:sRGB"
       inkscape:label="Lighting"
       id="filter5913">
      <feComponentTransfer
         result="component"
         id="feComponentTransfer5911">
        <feFuncR
           type="gamma"
           amplitude="1.39037"
           exponent="1"
           offset="0"
           id="feFuncR5905" />
        <feFuncG
           type="gamma"
           amplitude="1.39037"
           exponent="1"
           offset="0"
           id="feFuncG5907" />
        <feFuncB
           type="gamma"
           amplitude="1.39037"
           exponent="1"
           offset="0"
           id="feFuncB5909" />
      </feComponentTransfer>
    </filter>
    <filter
       style="color-interpolation-filters:sRGB"
       inkscape:label="Lighting"
       id="filter5903">
      <feComponentTransfer
         result="component"
         id="feComponentTransfer5901">
        <feFuncR
           type="gamma"
           amplitude="1.39037"
           exponent="1"
           offset="0"
           id="feFuncR5895" />
        <feFuncG
           type="gamma"
           amplitude="1.39037"
           exponent="1"
           offset="0"
           id="feFuncG5897" />
        <feFuncB
           type="gamma"
           amplitude="1.39037"
           exponent="1"
           offset="0"
           id="feFuncB5899" />
      </feComponentTransfer>
    </filter>
    <filter
       style="color-interpolation-filters:sRGB"
       inkscape:label="Lighting"
       id="filter5893">
      <feComponentTransfer
         result="component"
         id="feComponentTransfer5891">
        <feFuncR
           type="gamma"
           amplitude="1.39037"
           exponent="1"
           offset="0"
           id="feFuncR5885" />
        <feFuncG
           type="gamma"
           amplitude="1.39037"
           exponent="1"
           offset="0"
           id="feFuncG5887" />
        <feFuncB
           type="gamma"
           amplitude="1.39037"
           exponent="1"
           offset="0"
           id="feFuncB5889" />
      </feComponentTransfer>
    </filter>
    <filter
       style="color-interpolation-filters:sRGB"
       inkscape:label="Lighting"
       id="filter5993-3">
      <feComponentTransfer
         result="component"
         id="feComponentTransfer5991-6">
        <feFuncR
           type="gamma"
           amplitude="1.39037"
           exponent="1"
           offset="0"
           id="feFuncR5985-7" />
        <feFuncG
           type="gamma"
           amplitude="1.39037"
           exponent="1"
           offset="0"
           id="feFuncG5987-5" />
        <feFuncB
           type="gamma"
           amplitude="1.39037"
           exponent="1"
           offset="0"
           id="feFuncB5989-3" />
      </feComponentTransfer>
    </filter>
    <filter
       style="color-interpolation-filters:sRGB"
       inkscape:label="Lighting"
       id="filter5983-5">
      <feComponentTransfer
         result="component"
         id="feComponentTransfer5981-6">
        <feFuncR
           type="gamma"
           amplitude="1.39037"
           exponent="1"
           offset="0"
           id="feFuncR5975-2" />
        <feFuncG
           type="gamma"
           amplitude="1.39037"
           exponent="1"
           offset="0"
           id="feFuncG5977-9" />
        <feFuncB
           type="gamma"
           amplitude="1.39037"
           exponent="1"
           offset="0"
           id="feFuncB5979-1" />
      </feComponentTransfer>
    </filter>
    <filter
       style="color-interpolation-filters:sRGB"
       inkscape:label="Lighting"
       id="filter5973-2">
      <feComponentTransfer
         result="component"
         id="feComponentTransfer5971-7">
        <feFuncR
           type="gamma"
           amplitude="1.39037"
           exponent="1"
           offset="0"
           id="feFuncR5965-0" />
        <feFuncG
           type="gamma"
           amplitude="1.39037"
           exponent="1"
           offset="0"
           id="feFuncG5967-9" />
        <feFuncB
           type="gamma"
           amplitude="1.39037"
           exponent="1"
           offset="0"
           id="feFuncB5969-3" />
      </feComponentTransfer>
    </filter>
    <filter
       style="color-interpolation-filters:sRGB"
       inkscape:label="Lighting"
       id="filter5963-6">
      <feComponentTransfer
         result="component"
         id="feComponentTransfer5961-0">
        <feFuncR
           type="gamma"
           amplitude="1.39037"
           exponent="1"
           offset="0"
           id="feFuncR5955-6" />
        <feFuncG
           type="gamma"
           amplitude="1.39037"
           exponent="1"
           offset="0"
           id="feFuncG5957-2" />
        <feFuncB
           type="gamma"
           amplitude="1.39037"
           exponent="1"
           offset="0"
           id="feFuncB5959-6" />
      </feComponentTransfer>
    </filter>
    <filter
       style="color-interpolation-filters:sRGB"
       inkscape:label="Lighting"
       id="filter5953-1">
      <feComponentTransfer
         result="component"
         id="feComponentTransfer5951-8">
        <feFuncR
           type="gamma"
           amplitude="1.39037"
           exponent="1"
           offset="0"
           id="feFuncR5945-7" />
        <feFuncG
           type="gamma"
           amplitude="1.39037"
           exponent="1"
           offset="0"
           id="feFuncG5947-9" />
        <feFuncB
           type="gamma"
           amplitude="1.39037"
           exponent="1"
           offset="0"
           id="feFuncB5949-2" />
      </feComponentTransfer>
    </filter>
    <filter
       style="color-interpolation-filters:sRGB"
       inkscape:label="Lighting"
       id="filter5943-0">
      <feComponentTransfer
         result="component"
         id="feComponentTransfer5941-2">
        <feFuncR
           type="gamma"
           amplitude="1.39037"
           exponent="1"
           offset="0"
           id="feFuncR5935-3" />
        <feFuncG
           type="gamma"
           amplitude="1.39037"
           exponent="1"
           offset="0"
           id="feFuncG5937-7" />
        <feFuncB
           type="gamma"
           amplitude="1.39037"
           exponent="1"
           offset="0"
           id="feFuncB5939-5" />
      </feComponentTransfer>
    </filter>
    <filter
       style="color-interpolation-filters:sRGB"
       inkscape:label="Lighting"
       id="filter5933-9">
      <feComponentTransfer
         result="component"
         id="feComponentTransfer5931-2">
        <feFuncR
           type="gamma"
           amplitude="1.39037"
           exponent="1"
           offset="0"
           id="feFuncR5925-2" />
        <feFuncG
           type="gamma"
           amplitude="1.39037"
           exponent="1"
           offset="0"
           id="feFuncG5927-8" />
        <feFuncB
           type="gamma"
           amplitude="1.39037"
           exponent="1"
           offset="0"
           id="feFuncB5929-9" />
      </feComponentTransfer>
    </filter>
    <filter
       style="color-interpolation-filters:sRGB"
       inkscape:label="Lighting"
       id="filter5923-7">
      <feComponentTransfer
         result="component"
         id="feComponentTransfer5921-3">
        <feFuncR
           type="gamma"
           amplitude="1.39037"
           exponent="1"
           offset="0"
           id="feFuncR5915-6" />
        <feFuncG
           type="gamma"
           amplitude="1.39037"
           exponent="1"
           offset="0"
           id="feFuncG5917-1" />
        <feFuncB
           type="gamma"
           amplitude="1.39037"
           exponent="1"
           offset="0"
           id="feFuncB5919-2" />
      </feComponentTransfer>
    </filter>
    <filter
       style="color-interpolation-filters:sRGB"
       inkscape:label="Lighting"
       id="filter5913-9">
      <feComponentTransfer
         result="component"
         id="feComponentTransfer5911-3">
        <feFuncR
           type="gamma"
           amplitude="1.39037"
           exponent="1"
           offset="0"
           id="feFuncR5905-1" />
        <feFuncG
           type="gamma"
           amplitude="1.39037"
           exponent="1"
           offset="0"
           id="feFuncG5907-9" />
        <feFuncB
           type="gamma"
           amplitude="1.39037"
           exponent="1"
           offset="0"
           id="feFuncB5909-4" />
      </feComponentTransfer>
    </filter>
    <filter
       style="color-interpolation-filters:sRGB"
       inkscape:label="Lighting"
       id="filter5903-7">
      <feComponentTransfer
         result="component"
         id="feComponentTransfer5901-8">
        <feFuncR
           type="gamma"
           amplitude="1.39037"
           exponent="1"
           offset="0"
           id="feFuncR5895-4" />
        <feFuncG
           type="gamma"
           amplitude="1.39037"
           exponent="1"
           offset="0"
           id="feFuncG5897-5" />
        <feFuncB
           type="gamma"
           amplitude="1.39037"
           exponent="1"
           offset="0"
           id="feFuncB5899-0" />
      </feComponentTransfer>
    </filter>
    <filter
       style="color-interpolation-filters:sRGB"
       inkscape:label="Lighting"
       id="filter5893-3">
      <feComponentTransfer
         result="component"
         id="feComponentTransfer5891-6">
        <feFuncR
           type="gamma"
           amplitude="1.39037"
           exponent="1"
           offset="0"
           id="feFuncR5885-1" />
        <feFuncG
           type="gamma"
           amplitude="1.39037"
           exponent="1"
           offset="0"
           id="feFuncG5887-0" />
        <feFuncB
           type="gamma"
           amplitude="1.39037"
           exponent="1"
           offset="0"
           id="feFuncB5889-6" />
      </feComponentTransfer>
    </filter>
  </defs>
  <sodipodi:namedview
     id="base"
     pagecolor="#ffffff"
     bordercolor="#666666"
     borderopacity="1.0"
     inkscape:pageopacity="0.0"
     inkscape:pageshadow="2"
     inkscape:zoom="5.6"
     inkscape:cx="16.167025"
     inkscape:cy="17.309413"
     inkscape:document-units="mm"
     inkscape:current-layer="layer1"
     showgrid="false"
     units="px"
     inkscape:window-width="1535"
     inkscape:window-height="876"
     inkscape:window-x="65"
     inkscape:window-y="24"
     inkscape:window-maximized="1" />
  <metadata
     id="metadata6422">
    <rdf:RDF>
      <cc:Work
         rdf:about="">
        <dc:format>image/svg+xml</dc:format>
        <dc:type
           rdf:resource="http://purl.org/dc/dcmitype/StillImage" />
        <dc:title></dc:title>
      </cc:Work>
    </rdf:RDF>
  </metadata>
  <g
     inkscape:label="Layer 1"
     inkscape:groupmode="layer"
     id="layer1"
     transform="translate(0,-283.77082)">
    <circle
       style="color:#000000;clip-rule:nonzero;display:inline;overflow:visible;visibility:visible;opacity:1;isolation:auto;mix-blend-mode:normal;color-interpolation:sRGB;color-interpolation-filters:linearRGB;solid-color:#000000;solid-opacity:1;fill:#f0f0f0;fill-opacity:1;fill-rule:evenodd;stroke:none;stroke-width:0.26458332;stroke-linecap:round;stroke-linejoin:round;stroke-miterlimit:4;stroke-dasharray:none;stroke-dashoffset:0;stroke-opacity:1;color-rendering:auto;image-rendering:auto;shape-rendering:auto;text-rendering:auto;enable-background:accumulate"
       id="path6970"
       cx="6.6145835"
       cy="290.38541"
       r="6.6145835" />
    <g
       id="g4635"
       transform="matrix(0.17558043,0,0,0.17167051,-59.100548,278.32955)"
       style="display:inline;stroke-width:5.75988865">
      <path
         sodipodi:nodetypes="ccccc"
         inkscape:connector-curvature="0"
         id="path4550"
         d="m 362.21458,17.996859 c 0,0 35.2553,5.105313 35.81656,5.011769 3.13593,-0.128213 6.08764,-0.399715 7.01583,-2.245064 l -24.82743,-8.670078 c -12.24324,-6.3414988 -13.47211,2.68881 -18.00496,5.903373 z"
         style="fill:#323232;fill-opacity:1;fill-rule:evenodd;stroke:none;stroke-width:1.52397048px;stroke-linecap:butt;stroke-linejoin:miter;stroke-opacity:1" />
      <path
         style="fill:#222222;fill-opacity:1;fill-rule:evenodd;stroke:none;stroke-width:1.52397048px;stroke-linecap:butt;stroke-linejoin:miter;stroke-opacity:1"
         d="m 362.21458,17.996859 c -0.0103,0.08274 35.22389,5.356558 35.81656,5.011769 3.13593,-0.128213 5.07035,-0.306171 6.58319,-1.625333 -1.34159,0.913282 -3.26234,0.940423 -6.57133,0.989559 -10.17251,-1.195952 -25.06209,-4.779611 -33.20438,-6.003939 -0.93336,0.503001 -1.80543,1.04741 -2.62404,1.627944 z"
         id="path4560"
         inkscape:connector-curvature="0"
         sodipodi:nodetypes="cccccc" />
      <path
         sodipodi:nodetypes="cccccc"
         inkscape:connector-curvature="0"
         id="path4544"
         d="m 343.29687,-0.52397401 c 0.13229,0.66145832 0.66146,17.33020801 0.66146,17.33020801 l 18.25625,1.190625 c 4.47104,-4.891464 11.47409,-6.533607 19.31458,-5.423958 L 384.175,-5.5510571 c -14.83194,-0.8868401 -28.85639,-0.057746 -40.87813,5.02708309 z"
         style="fill:#838adb;fill-opacity:1;fill-rule:evenodd;stroke:#282f8a;stroke-width:1.52397048;stroke-linecap:butt;stroke-linejoin:miter;stroke-miterlimit:4;stroke-dasharray:none;stroke-opacity:1" />
      <path
         style="fill:none;fill-opacity:1;fill-rule:evenodd;stroke:#000000;stroke-width:1.52397048px;stroke-linecap:butt;stroke-linejoin:miter;stroke-opacity:1"
         d="m 362.21458,17.996859 c 0,0 33.51897,5.187995 35.81656,5.011769 3.13593,-0.128213 6.08764,-0.399715 7.01583,-2.245064 l -25.10806,-8.646692 c -9.13877,0.102456 -13.19148,2.665424 -17.72433,5.879987 z"
         id="path4562"
         inkscape:connector-curvature="0"
         sodipodi:nodetypes="ccccc" />
      <path
         inkscape:connector-curvature="0"
         id="path4546"
         d="m 343.95833,17.335401 v 0"
         style="fill:none;fill-rule:evenodd;stroke:#000000;stroke-width:1.52397048px;stroke-linecap:butt;stroke-linejoin:miter;stroke-opacity:1" />
      <path
         style="fill:#666ed3;fill-opacity:1;fill-rule:evenodd;stroke:none;stroke-width:1.52397048;stroke-linecap:butt;stroke-linejoin:miter;stroke-miterlimit:4;stroke-dasharray:none;stroke-opacity:1"
         d="m 343.61107,5.8094895 c 0.0333,1.3580398 0.36213,11.1603615 0.34726,10.9967445 l 18.25625,1.190625 c 4.47104,-4.891464 11.4507,-7.141645 19.29119,-6.031996 l 0.7459,-4.9414457 c -10.58021,0.3059129 -18.68799,3.4807677 -21.55541,5.3357987 -4.69642,0.799306 -11.38698,1.923571 -15.18753,0.651285 -1.03205,-0.255081 -0.99971,-7.5247281 -1.89766,-7.2010115 z"
         id="path4556"
         inkscape:connector-curvature="0"
         sodipodi:nodetypes="cccccccc" />
      <path
         style="fill:none;fill-opacity:1;fill-rule:evenodd;stroke:#282f8a;stroke-width:1.52397048;stroke-linecap:butt;stroke-linejoin:miter;stroke-miterlimit:4;stroke-dasharray:none;stroke-opacity:1"
         d="m 343.29687,-0.52397401 c 0.13229,0.66145832 0.66146,17.33020801 0.66146,17.33020801 l 18.25625,1.190625 c 4.47104,-4.891464 11.41621,-6.663832 19.2567,-5.554183 L 384.175,-5.5510571 c -14.83194,-0.8868401 -28.85639,-0.057746 -40.87813,5.02708309 z"
         id="path4558"
         inkscape:connector-curvature="0"
         sodipodi:nodetypes="cccccc" />
      <path
         sodipodi:nodetypes="ccccccc"
         inkscape:connector-curvature="0"
         id="path4548"
         d="m 343.84559,14.63641 0.11274,2.698991 c 2.26564,1.624662 11.51315,1.00515 18.25625,1.190625 5.4757,-3.144298 14.12822,-6.216656 19.84375,-5.953125 l 0.25736,-3.6894675 c -8.11587,0.7404621 -13.58175,1.3806075 -20.92654,5.5625645 -6.35142,0.567037 -13.20185,1.633081 -17.54356,0.190412 z"
         style="fill:#231b91;fill-opacity:1;fill-rule:evenodd;stroke:none;stroke-width:1.52397048px;stroke-linecap:butt;stroke-linejoin:miter;stroke-opacity:1" />
      <path
         style="fill:#1b1571;fill-opacity:1;fill-rule:evenodd;stroke:none;stroke-width:1.52397048px;stroke-linecap:butt;stroke-linejoin:miter;stroke-opacity:1"
         d="m 343.95833,16.806234 v 0.529167 c 2.26564,1.624662 11.51315,1.00515 18.25625,1.190625 5.48594,-3.210154 14.19737,-6.704468 19.84375,-5.953125 l 0.0469,-1.128465 c -7.90465,0.402322 -12.52475,2.108291 -20.10111,5.991157 -6.54261,0.348585 -13.94929,0.533111 -18.04578,-0.629359 z"
         id="path4552"
         inkscape:connector-curvature="0"
         sodipodi:nodetypes="cccccccc" />
      <path
         style="fill:none;fill-opacity:1;fill-rule:evenodd;stroke:#17115c;stroke-width:1.52397048px;stroke-linecap:butt;stroke-linejoin:miter;stroke-opacity:1"
         d="m 343.84559,14.63641 0.11274,2.698991 c 2.26564,1.624662 11.51315,1.00515 18.25625,1.190625 5.47779,-3.143811 14.12681,-6.369056 19.84375,-5.953125 l 0.25736,-3.6894675 c -8.11587,0.7404621 -13.58175,1.3806075 -20.92654,5.5625645 -6.35142,0.567037 -13.20185,1.633081 -17.54356,0.190412 z"
         id="path4554"
         inkscape:connector-curvature="0"
         sodipodi:nodetypes="ccccccc" />
    </g>
    <g
       id="g4645"
       transform="matrix(0.24700865,0,0,0.22007994,-8.3807093,220.78055)"
       style="display:inline;stroke-width:4.28897619">
      <g
         id="g6116"
         style="stroke-width:4.28897619">
        <path
           sodipodi:nodetypes="ccccc"
           inkscape:connector-curvature="0"
           id="path4582"
           d="m 377.45532,68.874411 c 0,0 24.86341,4.362958 25.25534,4.241126 2.19862,-0.249109 4.26472,-0.648615 4.87525,-2.700033 l -17.62226,-8.625431 c -21.99833,-9.132264 -9.39776,3.409619 -12.50833,7.084338 z"
           style="display:inline;fill:#323232;fill-opacity:1;fill-rule:evenodd;stroke:none;stroke-width:1.80918944px;stroke-linecap:butt;stroke-linejoin:miter;stroke-opacity:1;filter:url(#filter5993-3)"
           transform="matrix(0.6272376,0,0,0.6272376,-88.03139,282.37729)" />
        <path
           style="display:inline;fill:#222222;fill-opacity:1;fill-rule:evenodd;stroke:none;stroke-width:1.80918944px;stroke-linecap:butt;stroke-linejoin:miter;stroke-opacity:1;filter:url(#filter5983-5)"
           d="m 377.45532,68.874411 c -0.005,0.0909 24.84696,4.638966 25.25534,4.241126 2.19862,-0.249109 3.55265,-0.510957 4.58532,-2.006902 -0.92148,1.045881 -2.26928,1.142229 -4.59114,1.310816 -7.16788,-0.955645 -17.70038,-4.360275 -23.44365,-5.417417 -0.64403,0.582778 -1.24412,1.208741 -1.80587,1.872377 z"
           id="path4584"
           inkscape:connector-curvature="0"
           sodipodi:nodetypes="cccccc"
           transform="matrix(0.6272376,0,0,0.6272376,-88.03139,282.37729)" />
        <path
           style="display:inline;fill:none;fill-opacity:1;fill-rule:evenodd;stroke:#000000;stroke-width:1.80918944px;stroke-linecap:butt;stroke-linejoin:miter;stroke-opacity:1;filter:url(#filter5973-2)"
           d="m 377.45532,68.874411 c 0,0 23.64632,4.513681 25.25534,4.241126 2.19862,-0.249109 4.26472,-0.648615 4.87525,-2.700033 L 389.76716,61.8254 c -9.43751,-4.931586 -9.20127,3.374292 -12.31184,7.049011 z"
           id="path4586"
           inkscape:connector-curvature="0"
           sodipodi:nodetypes="ccccc"
           transform="matrix(0.6272376,0,0,0.6272376,-88.03139,282.37729)" />
        <path
           style="fill:#231b91;fill-opacity:1;fill-rule:evenodd;stroke:#17115c;stroke-width:1.80918956px;stroke-linecap:butt;stroke-linejoin:miter;stroke-opacity:1;filter:url(#filter5963-6)"
           d="m 338.72402,40.594962 57.8104,-4.677217 c 0,0 -6.26066,10.656613 -8.23189,16.79121 -11.71601,6.93871 -28.20675,5.777905 -42.56268,7.436773 -1.35272,-6.683788 -3.73363,-13.398835 -7.01583,-19.550766 z"
           id="path4564"
           inkscape:connector-curvature="0"
           sodipodi:nodetypes="ccccc"
           transform="matrix(0.6272376,0,0,0.6272376,-88.03139,282.37729)" />
        <path
           sodipodi:nodetypes="ccccccsc"
           inkscape:connector-curvature="0"
           id="path4609"
           d="m 359.21023,54.454371 18.1686,-2.842706 c 5.73617,-1.030399 11.49528,-2.855429 14.97444,-8.054262 -1.58474,3.08709 -3.2089,6.53169 -4.05074,9.151552 -11.71601,6.93871 -28.20675,5.777905 -42.56268,7.436773 -0.65127,-3.683101 -2.4025,-9.507001 -4.0291,-13.263519 1.62514,0.458104 3.22835,5.977273 6.03043,7.380895 3.24859,1.627281 7.6851,0.846518 11.46905,0.191267 z"
           style="fill:#1f187f;fill-opacity:1;fill-rule:evenodd;stroke:none;stroke-width:1.80918956px;stroke-linecap:butt;stroke-linejoin:miter;stroke-opacity:1;filter:url(#filter5953-1)"
           transform="matrix(0.6272376,0,0,0.6272376,-88.03139,282.37729)" />
        <path
           sodipodi:nodetypes="ccccc"
           inkscape:connector-curvature="0"
           id="path4611"
           d="m 338.72402,40.594962 57.8104,-4.677217 c 0,0 -6.26066,10.656613 -8.23189,16.79121 -11.71601,6.93871 -28.20675,5.777905 -42.56268,7.436773 -1.35272,-6.683788 -3.73363,-13.398835 -7.01583,-19.550766 z"
           style="fill:none;fill-opacity:1;fill-rule:evenodd;stroke:#17115c;stroke-width:1.80918956px;stroke-linecap:butt;stroke-linejoin:miter;stroke-opacity:1;filter:url(#filter5943-0)"
           transform="matrix(0.6272376,0,0,0.6272376,-88.03139,282.37729)" />
        <path
           style="fill:#130f4f;fill-opacity:1;fill-rule:evenodd;stroke:#0c0930;stroke-width:1.80918956px;stroke-linecap:butt;stroke-linejoin:miter;stroke-opacity:1;filter:url(#filter5933-9)"
           d="m 344.80441,66.880921 c 0.31246,-3.05042 0.14086,-6.601228 0.0248,-10.09462 2.03544,1.86387 5.00673,1.332091 7.55226,1.488539 11.64393,-0.669484 32.79408,-5.81111 34.98559,-5.986835 2.03756,-0.104949 2.98259,0.946895 2.89986,3.086962 l -0.81423,5.881233 c -2.41937,0.351617 -4.65496,0.762283 -6.76859,2.212619 -5.31928,3.978393 -1.98542,5.741226 -4.90533,5.844253 -5.97468,-0.207071 -6.0565,-0.445335 -12.87442,-1.789515 -3.47807,-0.778383 -12.78771,-0.880636 -18.50971,0.01217 -0.79499,0.122323 -1.41013,0.0134 -1.59026,-0.654806 z"
           id="path4566"
           inkscape:connector-curvature="0"
           sodipodi:nodetypes="cccccccccccc"
           transform="matrix(0.6272376,0,0,0.6272376,-88.03139,282.37729)" />
        <path
           style="color:#000000;clip-rule:nonzero;display:inline;overflow:visible;visibility:visible;opacity:1;isolation:auto;mix-blend-mode:normal;color-interpolation:sRGB;color-interpolation-filters:linearRGB;solid-color:#000000;solid-opacity:1;fill:#ffff11;fill-opacity:1;fill-rule:evenodd;stroke:#a3a300;stroke-width:1.80918956;stroke-linecap:round;stroke-linejoin:round;stroke-miterlimit:4;stroke-dasharray:none;stroke-dashoffset:0;stroke-opacity:1;filter:url(#filter5923-7);color-rendering:auto;image-rendering:auto;shape-rendering:auto;text-rendering:auto;enable-background:accumulate"
           d="m 390.19829,55.473896 c -4.28631,2.464438 -9.83028,3.421887 -15.16743,4.628887 -0.64749,-0.818491 -1.63375,-1.295913 -2.67737,-1.296046 -1.88582,-2.19e-4 -3.41471,1.528445 -3.41476,3.414263 5e-5,1.885815 1.52894,3.41448 3.41476,3.41426 1.61264,-7.94e-4 3.0049,-1.129644 3.33883,-2.707328 5.65206,-1.626163 11.00654,-2.47511 14.30126,-4.101274 l 0.4639,-3.279148 c -0.003,-0.220952 -0.0974,-0.151469 -0.25919,-0.07361 z"
           id="path4568"
           inkscape:connector-curvature="0"
           sodipodi:nodetypes="ccccccccc"
           transform="matrix(0.6272376,0,0,0.6272376,-88.03139,282.37729)" />
        <path
           sodipodi:nodetypes="cccccccc"
           inkscape:connector-curvature="0"
           id="path4647"
           d="m 375.10816,62.354499 c -0.14164,1.262007 -0.78601,2.208377 -2.51135,2.48775 -1.29057,0.282211 -3.65178,-0.850547 -3.65808,-2.621249 5e-5,1.885815 1.52894,3.41448 3.41476,3.41426 1.61264,-7.94e-4 3.0049,-1.129644 3.33883,-2.707328 5.65206,-1.626163 11.00654,-2.47511 14.30126,-4.101274 l 0.1718,-1.214381 c -1.60819,2.061417 -10.31508,2.782029 -15.05722,4.742222 z"
           style="color:#000000;clip-rule:nonzero;display:inline;overflow:visible;visibility:visible;opacity:1;isolation:auto;mix-blend-mode:normal;color-interpolation:sRGB;color-interpolation-filters:linearRGB;solid-color:#000000;solid-opacity:1;fill:#afaf00;fill-opacity:1;fill-rule:evenodd;stroke:none;stroke-width:1.80918956;stroke-linecap:round;stroke-linejoin:round;stroke-miterlimit:4;stroke-dasharray:none;stroke-dashoffset:0;stroke-opacity:1;filter:url(#filter5913-9);color-rendering:auto;image-rendering:auto;shape-rendering:auto;text-rendering:auto;enable-background:accumulate"
           transform="matrix(0.6272376,0,0,0.6272376,-88.03139,282.37729)" />
        <path
           sodipodi:nodetypes="cccccccccc"
           inkscape:connector-curvature="0"
           id="path4651"
           d="m 390.19829,55.473896 c -4.28631,2.464438 -9.83028,3.421887 -15.16743,4.628887 -0.64749,-0.818491 -1.63375,-1.295913 -2.67737,-1.296046 -1.88582,-2.19e-4 -3.73042,1.984474 -3.41476,3.414263 0.46145,-0.418578 0.70475,-2.159436 3.16575,-2.553499 1.86307,-0.09289 2.20617,0.735028 2.73784,1.193876 1.27461,-0.367754 14.07618,-2.933196 15.55723,-4.958008 l 0.0579,-0.355859 c -0.003,-0.220952 -0.0974,-0.151469 -0.25919,-0.07361 z"
           style="color:#000000;clip-rule:nonzero;display:inline;overflow:visible;visibility:visible;opacity:1;isolation:auto;mix-blend-mode:normal;color-interpolation:sRGB;color-interpolation-filters:linearRGB;solid-color:#000000;solid-opacity:1;fill:#ffff59;fill-opacity:1;fill-rule:evenodd;stroke:none;stroke-width:1.80918956;stroke-linecap:round;stroke-linejoin:round;stroke-miterlimit:4;stroke-dasharray:none;stroke-dashoffset:0;stroke-opacity:1;filter:url(#filter5903-7);color-rendering:auto;image-rendering:auto;shape-rendering:auto;text-rendering:auto;enable-background:accumulate"
           transform="matrix(0.6272376,0,0,0.6272376,-88.03139,282.37729)" />
        <path
           sodipodi:nodetypes="ccccccccc"
           inkscape:connector-curvature="0"
           id="path4649"
           d="m 390.19829,55.473896 c -4.28631,2.464438 -9.83028,3.421887 -15.16743,4.628887 -0.64749,-0.818491 -1.63375,-1.295913 -2.67737,-1.296046 -1.88582,-2.19e-4 -3.41471,1.528445 -3.41476,3.414263 5e-5,1.885815 1.52894,3.41448 3.41476,3.41426 1.61264,-7.94e-4 3.0049,-1.129644 3.33883,-2.707328 5.65206,-1.626163 11.00654,-2.47511 14.30126,-4.101274 l 0.4639,-3.279148 c -0.003,-0.220952 -0.0974,-0.151469 -0.25919,-0.07361 z"
           style="color:#000000;clip-rule:nonzero;display:inline;overflow:visible;visibility:visible;opacity:1;isolation:auto;mix-blend-mode:normal;color-interpolation:sRGB;color-interpolation-filters:linearRGB;solid-color:#000000;solid-opacity:1;fill:none;fill-opacity:1;fill-rule:evenodd;stroke:#a3a300;stroke-width:1.80918956;stroke-linecap:round;stroke-linejoin:round;stroke-miterlimit:4;stroke-dasharray:none;stroke-dashoffset:0;stroke-opacity:1;filter:url(#filter5893-3);color-rendering:auto;image-rendering:auto;shape-rendering:auto;text-rendering:auto;enable-background:accumulate"
           transform="matrix(0.6272376,0,0,0.6272376,-88.03139,282.37729)" />
      </g>
    </g>
    <g
       id="g4623"
       transform="matrix(0.1651424,0,0,0.16204963,-55.017765,312.14468)"
       style="display:inline;stroke-width:6.11289167">
      <path
         sodipodi:nodetypes="ccccc"
         inkscape:connector-curvature="0"
         id="path4532"
         d="m 382.43752,-23.901785 c 4.90365,1.326093 10.95326,2.151329 17.37907,1.984374 5.25607,-0.922582 6.26622,-5.415733 6.21782,-10.205357 -6.32086,-1.878572 -14.03525,0.504552 -22.43827,-1.511904 z"
         style="fill:#a5aae5;fill-opacity:1;fill-rule:evenodd;stroke:#3441b0;stroke-width:1.6199162;stroke-linecap:butt;stroke-linejoin:miter;stroke-miterlimit:4;stroke-dasharray:none;stroke-opacity:1" />
      <path
         style="fill:#838adb;fill-opacity:1;fill-rule:evenodd;stroke:none;stroke-width:1.6199162;stroke-linecap:butt;stroke-linejoin:miter;stroke-miterlimit:4;stroke-dasharray:none;stroke-opacity:1"
         d="m 382.43752,-23.901785 c 4.90365,1.326093 10.95326,2.151329 17.37907,1.984374 3.35847,-0.589503 4.98341,-2.636809 5.70632,-5.287769 l -0.23732,0.109359 c -1.32301,4.599136 -11.47979,4.133238 -20.26913,2.184824 -1.62276,-0.359733 -0.4155,-4.1024 -1.34308,-6.172337 z"
         id="path4540"
         inkscape:connector-curvature="0"
         sodipodi:nodetypes="ccccscc" />
      <path
         style="fill:none;fill-opacity:1;fill-rule:evenodd;stroke:#3441b0;stroke-width:1.6199162;stroke-linecap:butt;stroke-linejoin:miter;stroke-miterlimit:4;stroke-dasharray:none;stroke-opacity:1"
         d="m 382.43752,-23.901785 c 4.90365,1.326093 10.95326,2.151329 17.37907,1.984374 5.25607,-0.922582 6.26622,-5.415733 6.21782,-10.205357 -6.32086,-1.878572 -14.03525,0.504552 -22.43827,-1.511904 z"
         id="path4542"
         inkscape:connector-curvature="0"
         sodipodi:nodetypes="ccccc" />
      <path
         sodipodi:nodetypes="cccccccc"
         inkscape:connector-curvature="0"
         id="path4524"
         d="m 343.92795,-20.526938 c -1.94482,-1.814082 -3.09397,-4.059603 -3.01628,-6.720296 -1.76098,-11.250763 0.5928,-18.458079 11.17201,-21.166666 6.50353,-4.514526 12.67203,-4.706596 17.78602,-2.702171 5.01697,0.230557 14.81619,2.658939 13.965,20.032737 0.50078,3.439992 -0.55949,5.189919 -1.39651,7.181549 -9.05577,-1.148201 -25.07276,-3.188228 -37.54966,3.503051 -0.50813,0.191815 -0.65895,0.07932 -0.96058,-0.128204 z"
         style="fill:#a5aae5;fill-opacity:1;fill-rule:evenodd;stroke:#3441b0;stroke-width:1.6199162;stroke-linecap:butt;stroke-linejoin:miter;stroke-miterlimit:4;stroke-dasharray:none;stroke-opacity:1" />
      <path
         style="fill:#838adb;fill-opacity:1;fill-rule:evenodd;stroke:none;stroke-width:1.6199162;stroke-linecap:butt;stroke-linejoin:miter;stroke-miterlimit:4;stroke-dasharray:none;stroke-opacity:1"
         d="m 341.17612,-24.379389 c -0.19602,-0.7399 -0.28836,-2.048784 -0.26445,-2.867845 1.99308,-2.755078 5.04987,-3.110017 7.81966,-4.298295 -1.10901,-4.879879 -2.63519,-13.121055 3.35235,-16.868371 -2.25896,4.445817 -2.96612,8.155472 -0.74097,16.42165 3.01686,-1.072623 12.02542,-2.660558 18.35428,-1.98956 2.54945,-6.733569 1.80528,-13.208795 0.17271,-17.134261 2.85197,0.12907 5.14721,7.740397 2.86181,17.089487 3.21936,0.280613 8.39456,0.961832 11.10319,2.94325 0.0811,0.557054 0.12125,1.069789 0.12805,1.54641 -0.0849,-0.285923 -0.19248,-0.13661 -0.48227,-0.172438 -10.86347,-1.856543 -28.10887,-1.931242 -41.95901,3.811107 -0.55154,0.375323 -0.21961,1.068811 -0.34535,1.518866 z"
         id="path4534"
         inkscape:connector-curvature="0"
         sodipodi:nodetypes="ccccccccccccc" />
      <path
         sodipodi:nodetypes="cc"
         inkscape:connector-curvature="0"
         id="path4526"
         d="m 352.76256,-48.848213 c -5.33964,4.409805 -4.43898,10.867297 -2.42847,18.509861"
         style="fill:none;fill-opacity:1;fill-rule:evenodd;stroke:#3441b0;stroke-width:1.6199162;stroke-linecap:butt;stroke-linejoin:miter;stroke-miterlimit:4;stroke-dasharray:none;stroke-opacity:1" />
      <path
         sodipodi:nodetypes="cc"
         inkscape:connector-curvature="0"
         id="path4528"
         d="m 369.8697,-51.116071 c 3.69352,5.024455 3.20968,11.614411 0.87281,18.898809"
         style="fill:none;fill-opacity:1;fill-rule:evenodd;stroke:#3441b0;stroke-width:1.6199162;stroke-linecap:butt;stroke-linejoin:miter;stroke-miterlimit:4;stroke-dasharray:none;stroke-opacity:1" />
      <path
         sodipodi:nodetypes="cc"
         inkscape:connector-curvature="0"
         id="path4530"
         d="m 340.91167,-27.247234 c 12.64618,-5.230293 27.72501,-5.88929 42.92303,-3.8361"
         style="fill:none;fill-opacity:1;fill-rule:evenodd;stroke:#3441b0;stroke-width:1.6199162;stroke-linecap:butt;stroke-linejoin:miter;stroke-miterlimit:4;stroke-dasharray:none;stroke-opacity:1" />
      <path
         style="fill:#838adb;fill-opacity:1;fill-rule:evenodd;stroke:none;stroke-width:1.6199162;stroke-linecap:butt;stroke-linejoin:miter;stroke-miterlimit:4;stroke-dasharray:none;stroke-opacity:1"
         d="m 343.92795,-20.526938 -1.21105,-1.338156 c -0.49104,-0.03636 -1.43175,-2.27356 -1.59554,-3.59506 -0.0866,-0.699362 0.23118,-0.808922 0.53909,-0.93005 -0.13898,0.491949 1.08745,5.343484 3.03882,4.212917 12.61357,-5.173153 24.64727,-5.385205 36.29352,-3.21932 1.99699,0.58154 2.37452,-2.980832 2.33919,-4.440666 -0.0136,-0.559612 0.46001,-0.285386 0.54743,-0.54427 0.41225,2.261937 -0.769,4.885248 -1.44122,6.479758 -9.05577,-1.148201 -25.07276,-3.188228 -37.54966,3.503051 -0.50813,0.191815 -0.65895,0.07932 -0.96058,-0.128204 z"
         id="path4538"
         inkscape:connector-curvature="0"
         sodipodi:nodetypes="ccscccscccc" />
      <path
         style="fill:none;fill-opacity:1;fill-rule:evenodd;stroke:#3441b0;stroke-width:1.6199162;stroke-linecap:butt;stroke-linejoin:miter;stroke-miterlimit:4;stroke-dasharray:none;stroke-opacity:1"
         d="m 343.92795,-20.526938 c -1.94482,-1.814082 -3.09397,-4.059603 -3.01628,-6.720296 -1.76098,-11.250763 0.5928,-18.458079 11.17201,-21.166666 6.50353,-4.514526 12.67203,-4.706596 17.78602,-2.702171 5.01697,0.230557 14.81619,2.658939 13.965,20.032737 0.50078,3.439992 -0.55949,5.189919 -1.39651,7.181549 -9.05577,-1.148201 -25.07276,-3.188228 -37.54966,3.503051 -0.50813,0.191815 -0.65895,0.07932 -0.96058,-0.128204 z"
         id="path4536"
         inkscape:connector-curvature="0"
         sodipodi:nodetypes="cccccccc" />
    </g>
    <path
       style="color:#000000;clip-rule:nonzero;display:inline;overflow:visible;visibility:visible;opacity:1;isolation:auto;mix-blend-mode:normal;color-interpolation:sRGB;color-interpolation-filters:linearRGB;solid-color:#000000;solid-opacity:1;fill:#e9e9e9;fill-opacity:1;fill-rule:evenodd;stroke:#c0c0c0;stroke-width:0.26458332;stroke-linecap:round;stroke-linejoin:miter;stroke-miterlimit:4;stroke-dasharray:none;stroke-dashoffset:0;stroke-opacity:1;color-rendering:auto;image-rendering:auto;shape-rendering:auto;text-rendering:auto;enable-background:accumulate"
       d="m 6.4891333,285.31438 c -1.4022107,0 -2.5389261,1.27894 -2.5389221,3.0566 9.585e-4,0.91286 0.4282502,1.94434 0.9643327,2.55378 -0.9449453,0.61875 -1.8477125,1.7006 -2.3433198,3.07394 h 8.0867829 c -0.52434,-1.45442 -1.4895913,-2.57961 -2.5055981,-3.17674 0.4828756,-0.60436 0.8752815,-1.59075 0.8756481,-2.45098 3.2e-6,-1.77766 -1.1367122,-3.0566 -2.5389237,-3.0566 z"
       id="path4516"
       inkscape:connector-curvature="0"
       sodipodi:nodetypes="sccccccs" />
  </g>
</svg>
